General
Count                                    : 331
Count of stream of this kind             : 1
Kind of stream                           : General
Kind of stream                           : General
Stream identifier                        : 0
Count of audio streams                   : 1
Audio_Format_List                        : MPEG Audio
Audio_Format_WithHint_List               : MPEG Audio
Audio codecs                             : MPEG Audio
Complete name                            : /media/mau/music-library/music/Al Stewart/Year of the Cat/01 Lord Grenville.mp3
Folder name                              : /media/mau/music-library/music/Al Stewart/Year of the Cat
File name extension                      : 01 Lord Grenville.mp3
File name                                : 01 Lord Grenville
File extension                           : mp3
Format                                   : MPEG Audio
Format                                   : MPEG Audio
Format/Extensions usually used           : m1a mpa mpa1 mp1 m2a mpa2 mp2 mp3
Commercial name                          : MPEG Audio
Internet media type                      : audio/mpeg
File size                                : 12240160
File size                                : 11.7 MiB
File size                                : 12 MiB
File size                                : 12 MiB
File size                                : 11.7 MiB
File size                                : 11.67 MiB
Duration                                 : 305892
Duration                                 : 5 min 5 s
Duration                                 : 5 min 5 s 892 ms
Duration                                 : 5 min 5 s
Duration                                 : 00:05:05.892
Duration                                 : 00:05:05.892
Overall bit rate mode                    : CBR
Overall bit rate mode                    : Constant
Overall bit rate                         : 320000
Overall bit rate                         : 320 kb/s
Stream size                              : 4480
Stream size                              : 4.38 KiB (0%)
Stream size                              : 4 KiB
Stream size                              : 4.4 KiB
Stream size                              : 4.38 KiB
Stream size                              : 4.375 KiB
Stream size                              : 4.38 KiB (0%)
Proportion of this stream                : 0.00037
Title                                    : Lord Grenville
Album                                    : Year of the Cat
Album/Sorted by                          : Year of the Cat
Album/Performer                          : Al Stewart
Track name                               : Lord Grenville
Track name/Position                      : 1
Track name/Total                         : 9
Performer                                : Al Stewart
Composer                                 : Al Stewart
Composer/Sorted by                       : Al Stewart
Publisher                                : Rhino
Genre                                    : Pop
Recorded date                            : 1976
File last modification date              : UTC 2020-04-26 18:34:04
File last modification date (local)      : 2020-04-26 13:34:04

Audio
Count                                    : 280
Count of stream of this kind             : 1
Kind of stream                           : Audio
Kind of stream                           : Audio
Stream identifier                        : 0
Format                                   : MPEG Audio
Format                                   : MPEG Audio
Commercial name                          : MPEG Audio
Format version                           : Version 1
Format profile                           : Layer 3
Format settings                          : Joint stereo
Mode                                     : Joint stereo
Internet media type                      : audio/mpeg
Duration                                 : 305893
Duration                                 : 5 min 5 s
Duration                                 : 5 min 5 s 893 ms
Duration                                 : 5 min 5 s
Duration                                 : 00:05:05.893
Duration                                 : 00:05:08:06
Duration                                 : 00:05:05.893 (00:05:08:06)
Bit rate mode                            : CBR
Bit rate mode                            : Constant
Bit rate                                 : 320000
Bit rate                                 : 320 kb/s
Channel(s)                               : 2
Channel(s)                               : 2 channels
Samples per frame                        : 1152
Sampling rate                            : 44100
Sampling rate                            : 44.1 kHz
Samples count                            : 13489920
Frame rate                               : 38.281
Frame rate                               : 38.281 FPS (1152 SPF)
Frame count                              : 11710
Compression mode                         : Lossy
Compression mode                         : Lossy
Stream size                              : 12235680
Stream size                              : 11.7 MiB (100%)
Stream size                              : 12 MiB
Stream size                              : 12 MiB
Stream size                              : 11.7 MiB
Stream size                              : 11.67 MiB
Stream size                              : 11.7 MiB (100%)
Proportion of this stream                : 0.99963


